<svg width="71" height="70" viewBox="0 0 71 70" fill="none" xmlns="http://www.w3.org/2000/svg">
<g clip-path="url(#clip0_3407_1285)">
<rect opacity="0.1" x="0.714844" width="70" height="70" rx="20" fill="#C76316"/>
<path d="M26.4331 21C26.1554 21 25.9178 21.1801 25.8328 21.4527L19.7498 40.9413C19.6748 41.1831 19.7273 41.4661 19.9099 41.641L26.373 47.8148C26.4906 47.928 26.6507 48 26.8133 48H33.7966C34.0843 48 34.3419 47.7916 34.4169 47.5061L35.2773 44.2752C35.3374 44.2932 35.3924 44.3163 35.4574 44.3163H37.0182L39.9796 47.7736C40.1022 47.9177 40.2748 48 40.4599 48H47.6833C47.991 48 48.2661 47.7762 48.3237 47.4649L51.7053 29.0259C51.7328 28.8819 51.7103 28.7249 51.6453 28.5938L48.0035 21.3498C47.8934 21.1312 47.6833 21 47.4432 21H40.1397C39.8471 21 39.5919 21.2032 39.5194 21.4939L38.799 24.375L37.2983 24.4162C37.0182 24.4264 36.7731 24.6322 36.698 24.9101L36.658 25.0335L33.9967 21.2675C33.8767 21.0978 33.6816 21 33.4765 21H26.4331ZM26.8933 22.3171H32.576L31.6956 25.3422H25.9528L26.8933 22.3171ZM40.6399 22.3171H46.5828L45.1221 28.6349H42.1207C42.1507 28.5397 42.1682 28.4497 42.1807 28.3468L42.5008 26.0831C42.5709 25.4348 42.3508 25.0258 42.1607 24.8072C41.9806 24.6014 41.6579 24.3544 41.1002 24.3544H40.1197L40.6399 22.3171ZM39.3193 25.6715H41.1002C41.1877 25.6715 41.2177 25.6921 41.2202 25.6921C41.2302 25.7101 41.2527 25.7924 41.2402 25.9184L40.9001 28.1616C40.8725 28.424 40.6349 28.5732 40.3998 28.5732C40.2998 28.5732 40.2047 28.5938 40.1197 28.6349H37.0782L37.6785 26.3712C37.696 26.3043 37.701 26.2323 37.6985 26.1654L37.8186 25.7332L39.3193 25.6715ZM25.5526 26.6593H32.9762L32.3359 29.1288C32.2859 29.3269 32.3334 29.543 32.456 29.705C32.576 29.8671 32.7586 29.952 32.9562 29.952H44.842L42.6209 40.5503H36.9982L38.8991 33.2858C38.9516 33.0877 38.8991 32.8717 38.779 32.7096C38.659 32.5475 38.4789 32.4627 38.2788 32.4627H36.0377C35.7476 32.4627 35.4924 32.6684 35.4174 32.9566L34.577 36.1463H31.9557L32.7561 33.2241C32.8112 33.026 32.7561 32.8125 32.6361 32.6479C32.516 32.4832 32.3359 32.4009 32.1358 32.4009H29.8947C29.6096 32.4009 29.3545 32.5938 29.2744 32.8742L28.5541 35.4261C28.5091 35.4878 28.4565 35.5547 28.434 35.6319L28.414 35.7553H26.213L26.4731 34.9527C26.5931 34.5206 26.5156 34.0678 26.273 33.7386C26.0429 33.4247 25.6777 33.2447 25.2725 33.2447H23.4916L25.5526 26.6593ZM23.0714 34.5617H25.2525L25.0124 35.3026C24.8898 35.5984 24.8598 35.8917 24.9323 36.1669C24.7097 36.3547 24.5522 36.5991 24.4721 36.8872L24.232 37.7721C24.0469 38.2506 24.0844 38.7651 24.3321 39.1509C24.5321 39.4622 24.9499 39.83 25.8528 39.83H27.2735L27.0934 40.4268L21.2306 40.4886L23.0714 34.5617ZM26.1729 37.0724H28.0338L27.6336 38.513H25.8528C25.4826 38.513 25.3926 38.4306 25.3926 38.4306C25.3851 38.4126 25.3776 38.3303 25.4126 38.2454C25.4226 38.2197 25.4451 38.1888 25.4526 38.1631L25.7127 37.2576C25.7352 37.1727 25.9303 37.0724 26.1729 37.0724Z" fill="#C76316"/>
</g>
<defs>
<clipPath id="clip0_3407_1285">
<rect width="70" height="70" fill="white" transform="translate(0.714844)"/>
</clipPath>
</defs>
</svg>
