<svg width="71" height="70" viewBox="0 0 71 70" fill="none" xmlns="http://www.w3.org/2000/svg">
<g clip-path="url(#clip0_3407_1284)">
<rect opacity="0.1" x="0.572266" width="70" height="70" rx="20" fill="#FFBB1C"/>
<path d="M33.0397 19.8C30.2416 19.8 27.973 22.0686 27.973 24.8667V26.1333H34.3064C35.0056 26.1333 35.573 26.7008 35.573 27.4C35.573 28.0992 35.0056 28.6667 34.3064 28.6667H27.973H26.7064H25.4397C22.6416 28.6667 20.373 30.9353 20.373 33.7333V38.8C20.373 41.5981 22.6416 43.8667 25.4397 43.8667H26.7064V37.5333C26.7064 35.4383 28.4113 33.7333 30.5064 33.7333H40.6397C41.3389 33.7333 41.9064 33.1659 41.9064 32.4667V24.8667C41.9064 22.0686 39.6378 19.8 36.8397 19.8H33.0397ZM31.773 22.3333C32.4722 22.3333 33.0397 22.9008 33.0397 23.6C33.0397 24.2992 32.4722 24.8667 31.773 24.8667C31.0738 24.8667 30.5064 24.2992 30.5064 23.6C30.5064 22.9008 31.0738 22.3333 31.773 22.3333ZM44.4397 26.1333V32.4667C44.4397 34.5617 42.7348 36.2667 40.6397 36.2667H30.5064C29.8072 36.2667 29.2397 36.8341 29.2397 37.5333V45.1333C29.2397 47.9314 31.5083 50.2 34.3064 50.2H38.1064C40.9044 50.2 43.173 47.9314 43.173 45.1333V43.8667H36.8397C36.1405 43.8667 35.573 43.2992 35.573 42.6C35.573 41.9008 36.1405 41.3333 36.8397 41.3333H43.173H44.4397H45.7064C48.5044 41.3333 50.773 39.0647 50.773 36.2667V31.2C50.773 28.4019 48.5044 26.1333 45.7064 26.1333H44.4397ZM39.373 45.1333C40.0722 45.1333 40.6397 45.7008 40.6397 46.4C40.6397 47.0992 40.0722 47.6667 39.373 47.6667C38.6738 47.6667 38.1064 47.0992 38.1064 46.4C38.1064 45.7008 38.6738 45.1333 39.373 45.1333Z" fill="#FFBB1C"/>
</g>
<defs>
<clipPath id="clip0_3407_1284">
<rect width="70" height="70" fill="white" transform="translate(0.572266)"/>
</clipPath>
</defs>
</svg>
