<svg width="71" height="70" viewBox="0 0 71 70" fill="none" xmlns="http://www.w3.org/2000/svg">
<g clip-path="url(#clip0_3407_1282)">
<rect opacity="0.1" x="0.285156" width="70" height="70" rx="20" fill="#073894"/>
<path d="M33.8547 46.5613L26.0294 42.0397C25.5762 41.777 25.2244 41.4246 24.974 40.9827C24.7235 40.5408 24.5983 40.069 24.5983 39.5673V30.524C24.5983 30.0224 24.7235 29.5506 24.974 29.1087C25.2244 28.6668 25.5762 28.3144 26.0294 28.0516L33.8547 23.53C34.3086 23.2702 34.7865 23.1402 35.2883 23.1402C35.79 23.1402 36.2662 23.2702 36.7169 23.53L44.5422 28.0516C44.9954 28.3144 45.3472 28.6668 45.5976 29.1087C45.848 29.5506 45.9732 30.0224 45.9732 30.524V39.5673C45.9732 40.069 45.848 40.5408 45.5976 40.9827C45.3472 41.4246 44.9954 41.777 44.5422 42.0397L36.7169 46.5613C36.2629 46.8212 35.785 46.9511 35.2833 46.9511C34.7815 46.9511 34.3053 46.8212 33.8547 46.5613ZM21.4311 28.2708C21.0945 28.2708 20.8125 28.157 20.5852 27.9294C20.3578 27.7018 20.2441 27.4198 20.2441 27.0833V22.8206C20.2441 22.0335 20.5244 21.3597 21.0849 20.7992C21.6454 20.2386 22.3192 19.9584 23.1063 19.9584H27.3691C27.7056 19.9584 27.9876 20.0722 28.2152 20.2999C28.4428 20.5276 28.5566 20.8098 28.5566 21.1464C28.5566 21.483 28.4428 21.765 28.2152 21.9923C27.9876 22.2197 27.7056 22.3333 27.3691 22.3333H23.1063C22.9642 22.3333 22.8475 22.379 22.7561 22.4704C22.6648 22.5617 22.6191 22.6785 22.6191 22.8206V27.0833C22.6191 27.4198 22.5052 27.7018 22.2775 27.9294C22.0499 28.157 21.7677 28.2708 21.4311 28.2708ZM23.1063 50.0416C22.3192 50.0416 21.6454 49.7614 21.0849 49.2008C20.5244 48.6403 20.2441 47.9665 20.2441 47.1794V42.9167C20.2441 42.5802 20.358 42.2982 20.5857 42.0706C20.8134 41.843 21.0956 41.7292 21.4322 41.7292C21.7688 41.7292 22.0508 41.843 22.2781 42.0706C22.5054 42.2982 22.6191 42.5802 22.6191 42.9167V47.1794C22.6191 47.3215 22.6648 47.4383 22.7561 47.5296C22.8475 47.621 22.9642 47.6667 23.1063 47.6667H27.3691C27.7056 47.6667 27.9876 47.7805 28.2152 48.0082C28.4428 48.2359 28.5566 48.5181 28.5566 48.8547C28.5566 49.1913 28.4428 49.4732 28.2152 49.7006C27.9876 49.9279 27.7056 50.0416 27.3691 50.0416H23.1063ZM47.4652 50.0416H43.2024C42.866 50.0416 42.5839 49.9278 42.3563 49.7001C42.1288 49.4724 42.015 49.1902 42.015 48.8536C42.015 48.517 42.1288 48.235 42.3563 48.0077C42.5839 47.7803 42.866 47.6667 43.2024 47.6667H47.4652C47.6073 47.6667 47.724 47.621 47.8154 47.5296C47.9068 47.4383 47.9524 47.3215 47.9524 47.1794V42.9167C47.9524 42.5802 48.0663 42.2982 48.294 42.0706C48.5217 41.843 48.8038 41.7292 49.1405 41.7292C49.477 41.7292 49.759 41.843 49.9863 42.0706C50.2137 42.2982 50.3274 42.5802 50.3274 42.9167V47.1794C50.3274 47.9665 50.0471 48.6403 49.4866 49.2008C48.9261 49.7614 48.2523 50.0416 47.4652 50.0416ZM47.9524 27.0833V22.8206C47.9524 22.6785 47.9068 22.5617 47.8154 22.4704C47.724 22.379 47.6073 22.3333 47.4652 22.3333H43.2024C42.866 22.3333 42.5839 22.2195 42.3563 21.9918C42.1288 21.7641 42.015 21.4819 42.015 21.1453C42.015 20.8087 42.1288 20.5268 42.3563 20.2994C42.5839 20.0721 42.866 19.9584 43.2024 19.9584H47.4652C48.2523 19.9584 48.9261 20.2386 49.4866 20.7992C50.0471 21.3597 50.3274 22.0335 50.3274 22.8206V27.0833C50.3274 27.4198 50.2135 27.7018 49.9858 27.9294C49.7581 28.157 49.476 28.2708 49.1394 28.2708C48.8028 28.2708 48.5208 28.157 48.2934 27.9294C48.0661 27.7018 47.9524 27.4198 47.9524 27.0833ZM28.2094 29.5436L26.9732 30.25V31.6201L34.0983 35.7125V43.9703L35.2858 44.6523L36.4732 43.9703V35.7125L43.5983 31.6201V30.25L42.3621 29.5436L35.2858 33.6664L28.2094 29.5436Z" fill="#073894"/>
</g>
<defs>
<clipPath id="clip0_3407_1282">
<rect width="70" height="70" fill="white" transform="translate(0.285156)"/>
</clipPath>
</defs>
</svg>
