<svg width="71" height="70" viewBox="0 0 71 70" fill="none" xmlns="http://www.w3.org/2000/svg">
<g clip-path="url(#clip0_3407_1281)">
<rect opacity="0.1" x="0.142578" width="70" height="70" rx="20" fill="#05ACFF"/>
<path fill-rule="evenodd" clip-rule="evenodd" d="M22.9362 47.1875C23.4653 47.7291 24.1116 48 24.8752 48L45.4101 48C46.1736 48 46.82 47.7292 47.349 47.1875C47.8781 46.6458 48.1427 45.9841 48.1427 45.2024V24.7976C48.1427 24.0159 47.8781 23.3542 47.349 22.8125C46.82 22.2708 46.1736 22 45.4101 22H24.8752C24.1116 22 23.4653 22.2708 22.9362 22.8125C22.4071 23.3542 22.1426 24.0159 22.1426 24.7976V45.2024C22.1426 45.9841 22.4071 46.6458 22.9362 47.1875ZM27.6582 39.1452C27.6186 39.2541 27.5987 39.373 27.5987 39.5018C27.5987 39.7989 27.7027 40.0515 27.9107 40.2595C28.1187 40.4675 28.3713 40.5715 28.6685 40.5715C28.8963 40.5715 29.0993 40.5071 29.2776 40.3783C29.4658 40.2397 29.5995 40.0564 29.6787 39.8286L30.2136 38.3429H34.6559L35.1016 39.7246C35.1809 39.9722 35.3195 40.1753 35.5176 40.3338C35.7157 40.4922 35.9386 40.5715 36.1862 40.5715C36.5131 40.5715 36.7904 40.4576 37.0182 40.2298C37.246 40.0019 37.3599 39.7296 37.3599 39.4126C37.3599 39.2838 37.3401 39.16 37.3005 39.0412L34.3736 30.7509C34.2449 30.3547 34.0071 30.0377 33.6605 29.8C33.3138 29.5524 32.9325 29.4286 32.5165 29.4286C32.1005 29.4286 31.7191 29.5474 31.3725 29.7852C31.0357 30.0229 30.798 30.3398 30.6593 30.736L27.6582 39.1452ZM30.7188 36.5452L32.4125 31.4492L34.1953 36.5452H30.7188ZM39.413 40.2446C39.6309 40.4625 39.8934 40.5715 40.2004 40.5715C40.4976 40.5715 40.7501 40.4625 40.9581 40.2446C41.176 40.0267 41.285 39.7692 41.285 39.472V30.528C41.285 30.221 41.176 29.9634 40.9581 29.7554C40.7501 29.5375 40.4976 29.4286 40.2004 29.4286C39.8934 29.4286 39.6309 29.5375 39.413 29.7554C39.205 29.9634 39.101 30.221 39.101 30.528V39.472C39.101 39.7692 39.205 40.0267 39.413 40.2446Z" fill="#05ACFF"/>
</g>
<defs>
<clipPath id="clip0_3407_1281">
<rect width="70" height="70" fill="white" transform="translate(0.142578)"/>
</clipPath>
</defs>
</svg>
