<svg width="70" height="70" viewBox="0 0 70 70" fill="none" xmlns="http://www.w3.org/2000/svg">
<g clip-path="url(#clip0_3407_1280)">
<rect opacity="0.1" width="70" height="70" rx="20" fill="#056FEC"/>
<path d="M27.413 51.6249C26.6132 51.6249 25.9362 51.3479 25.382 50.7937C24.8279 50.2396 24.5508 49.5626 24.5508 48.7628V21.2373C24.5508 20.4375 24.8279 19.7605 25.382 19.2063C25.9362 18.6521 26.6132 18.3751 27.413 18.3751H42.2718C43.0716 18.3751 43.7486 18.6521 44.3028 19.2063C44.857 19.7605 45.134 20.4375 45.134 21.2373V48.7628C45.134 49.5626 44.857 50.2396 44.3028 50.7937C43.7486 51.3479 43.0716 51.625 42.2718 51.625H27.413V51.6249ZM26.9257 44.8959H42.7591V25.1042H26.9257V44.8959Z" fill="#056FEC"/>
</g>
<defs>
<clipPath id="clip0_3407_1280">
<rect width="70" height="70" fill="white"/>
</clipPath>
</defs>
</svg>
