<svg width="71" height="70" viewBox="0 0 71 70" fill="none" xmlns="http://www.w3.org/2000/svg">
<g clip-path="url(#clip0_3407_1286)">
<rect opacity="0.1" x="0.857422" width="70" height="70" rx="20" fill="#043FAD"/>
<g clip-path="url(#clip1_3407_1286)">
<path d="M20.8151 43.9519V24.8302C20.8151 24.0431 21.0954 23.3693 21.6559 22.8088C22.2164 22.2483 22.8902 21.968 23.6773 21.968H48.0362C48.8233 21.968 49.4971 22.2483 50.0576 22.8088C50.6181 23.3693 50.8984 24.0431 50.8984 24.8302V43.9519H52.8775C53.214 43.9519 53.496 44.0657 53.7236 44.2934C53.9512 44.5211 54.065 44.8033 54.065 45.1399C54.065 45.4765 53.9512 45.7585 53.7236 45.9858C53.496 46.2131 53.214 46.3268 52.8775 46.3268H18.8359C18.4995 46.3268 18.2174 46.213 17.9898 45.9853C17.7622 45.7576 17.6484 45.4754 17.6484 45.1388C17.6484 44.8022 17.7622 44.5202 17.9898 44.2929C18.2174 44.0656 18.4995 43.9519 18.8359 43.9519H20.8151ZM33.3904 43.9519H38.3231C38.5098 43.9519 38.6732 43.8818 38.8133 43.7418C38.9534 43.6017 39.0234 43.4383 39.0234 43.2516C39.0234 43.0648 38.9534 42.9014 38.8133 42.7613C38.6732 42.6213 38.5098 42.5513 38.3231 42.5513H33.3904C33.2036 42.5513 33.0402 42.6213 32.9002 42.7613C32.7601 42.9014 32.6901 43.0648 32.6901 43.2516C32.6901 43.4383 32.7601 43.6017 32.9002 43.7418C33.0402 43.8818 33.2036 43.9519 33.3904 43.9519Z" fill="#043FAD"/>
</g>
</g>
<defs>
<clipPath id="clip0_3407_1286">
<rect width="70" height="70" fill="white" transform="translate(0.857422)"/>
</clipPath>
<clipPath id="clip1_3407_1286">
<rect width="38" height="38" fill="white" transform="translate(16.8574 16)"/>
</clipPath>
</defs>
</svg>
