<svg width="70" height="70" viewBox="0 0 70 70" fill="none" xmlns="http://www.w3.org/2000/svg">
<g clip-path="url(#clip0_3407_1287)">
<rect opacity="0.1" width="70" height="70" rx="20" fill="#056FEC"/>
<path d="M22.9638 46.875C22.1767 46.875 21.5029 46.5947 20.9424 46.0342C20.3818 45.4737 20.1016 44.7999 20.1016 44.0128V25.9873C20.1016 25.2002 20.3818 24.5264 20.9424 23.9659C21.5029 23.4053 22.1767 23.1251 22.9638 23.1251H45.8307C46.1671 23.1251 46.4491 23.2389 46.6767 23.4666C46.9044 23.6943 47.0182 23.9765 47.0182 24.3131C47.0182 24.6497 46.9044 24.9317 46.6767 25.159C46.4491 25.3864 46.1671 25.5 45.8307 25.5H22.9638C22.8217 25.5 22.7049 25.5457 22.6136 25.6371C22.5222 25.7284 22.4765 25.8452 22.4765 25.9873V44.0128C22.4765 44.1549 22.5222 44.2716 22.6136 44.363C22.7049 44.4543 22.8217 44.5 22.9638 44.5H25.8259C26.1623 44.5 26.4444 44.6139 26.672 44.8416C26.8996 45.0693 27.0134 45.3514 27.0134 45.688C27.0134 46.0246 26.8996 46.3066 26.672 46.5339C26.4444 46.7613 26.1623 46.875 25.8259 46.875H22.9638ZM33.4685 43.4038C34.1282 43.4038 34.689 43.1729 35.1508 42.7111C35.6126 42.2493 35.8435 41.6886 35.8435 41.0288C35.8435 40.3691 35.6126 39.8084 35.1508 39.3466C34.689 38.8847 34.1282 38.6538 33.4685 38.6538C32.8088 38.6538 32.248 38.8847 31.7862 39.3466C31.3244 39.8084 31.0935 40.3691 31.0935 41.0288C31.0935 41.6886 31.3244 42.2493 31.7862 42.7111C32.248 43.1729 32.8088 43.4038 33.4685 43.4038ZM48.7537 46.875H41.3547C40.9493 46.875 40.6094 46.7378 40.3351 46.4635C40.0608 46.1892 39.9236 45.8494 39.9236 45.4439V31.6811C39.9236 31.2756 40.0608 30.9357 40.3351 30.6615C40.6094 30.3872 40.9493 30.25 41.3547 30.25H48.7537C49.1592 30.25 49.4991 30.3872 49.7734 30.6615C50.0477 30.9357 50.1848 31.2756 50.1848 31.6811V45.4439C50.1848 45.8494 50.0477 46.1892 49.7734 46.4635C49.4991 46.7378 49.1592 46.875 48.7537 46.875ZM30.7891 45.4374V44.3234C30.2978 43.9255 29.9111 43.4409 29.629 42.8695C29.3468 42.298 29.2057 41.6845 29.2057 41.0288C29.2057 40.3732 29.3468 39.7596 29.629 39.1882C29.9111 38.6168 30.2978 38.1322 30.7891 37.7343V36.6202C30.7891 36.2129 30.9262 35.8715 31.2005 35.596C31.4748 35.3205 31.8147 35.1827 32.2201 35.1827H34.7169C35.1223 35.1827 35.4622 35.3205 35.7365 35.596C36.0108 35.8715 36.148 36.2129 36.148 36.6202V37.7343C36.6392 38.1322 37.0259 38.6168 37.308 39.1882C37.5902 39.7596 37.7313 40.3732 37.7313 41.0288C37.7313 41.6845 37.5902 42.298 37.308 42.8695C37.0259 43.4409 36.6392 43.9255 36.148 44.3234V45.4374C36.148 45.8447 36.0108 46.1862 35.7365 46.4617C35.4622 46.7372 35.1223 46.875 34.7169 46.875H32.2201C31.8147 46.875 31.4748 46.7372 31.2005 46.4617C30.9262 46.1862 30.7891 45.8447 30.7891 45.4374Z" fill="#056FEC"/>
</g>
<defs>
<clipPath id="clip0_3407_1287">
<rect width="70" height="70" fill="white"/>
</clipPath>
</defs>
</svg>
