<svg width="71" height="70" viewBox="0 0 71 70" fill="none" xmlns="http://www.w3.org/2000/svg">
<g clip-path="url(#clip0_3407_1283)">
<rect opacity="0.1" x="0.427734" width="70" height="70" rx="20" fill="#FF7F1C"/>
<path d="M22.0561 46.6111C20.8407 46.6111 19.8994 46.1757 19.2322 45.3048C18.5649 44.434 18.3128 43.4071 18.4757 42.2242L20.3899 28.4976C20.6236 26.9041 21.3184 25.5895 22.4742 24.5537C23.63 23.5179 24.9939 23 26.5661 23H44.2894C45.8615 23 47.2255 23.5179 48.3813 24.5537C49.5371 25.5895 50.2318 26.9041 50.4656 28.4976L52.3798 42.2242C52.5427 43.4071 52.2906 44.434 51.6233 45.3048C50.9561 46.1757 50.0147 46.6111 48.7994 46.6111C48.2876 46.6111 47.8176 46.5238 47.3896 46.3491C46.9615 46.1745 46.5639 45.9009 46.1967 45.5284L41.8932 41.1624H28.9622L24.6588 45.5284C24.2916 45.9009 23.8939 46.1745 23.4659 46.3491C23.0378 46.5238 22.5679 46.6111 22.0561 46.6111ZM44.3789 36.4472C44.8287 36.4472 45.2109 36.2877 45.5253 35.9686C45.8397 35.6496 45.997 35.2619 45.997 34.8056C45.997 34.3492 45.8397 33.9615 45.5253 33.6425C45.2109 33.3235 44.8287 33.1639 44.3789 33.1639C43.929 33.1639 43.5469 33.3235 43.2325 33.6425C42.918 33.9615 42.7608 34.3492 42.7608 34.8056C42.7608 35.2619 42.918 35.6496 43.2325 35.9686C43.5469 36.2877 43.929 36.4472 44.3789 36.4472ZM40.7984 30.9984C41.2483 30.9984 41.6304 30.8389 41.9448 30.5199C42.2593 30.2009 42.4165 29.8132 42.4165 29.3568C42.4165 28.9004 42.2593 28.5127 41.9448 28.1937C41.6304 27.8747 41.2483 27.7152 40.7984 27.7152C40.3486 27.7152 39.9664 27.8747 39.652 28.1937C39.3375 28.5127 39.1803 28.9004 39.1803 29.3568C39.1803 29.8132 39.3375 30.2009 39.652 30.5199C39.9664 30.8389 40.3486 30.9984 40.7984 30.9984ZM28.0947 33.1639V35.2596C28.0947 35.5716 28.1957 35.8301 28.3976 36.035C28.5996 36.2399 28.8544 36.3424 29.1619 36.3424C29.4695 36.3447 29.7236 36.2428 29.9245 36.0367C30.1253 35.8307 30.2269 35.5716 30.2292 35.2596V33.1639H32.2948C32.6024 33.1639 32.8571 33.0615 33.0591 32.8566C33.2611 32.6517 33.3621 32.3932 33.3621 32.0812C33.3644 31.7692 33.264 31.5113 33.0608 31.3076C32.8577 31.1038 32.6024 31.0008 32.2948 30.9984H30.2292V28.9028C30.2292 28.5908 30.1282 28.3323 29.9262 28.1274C29.7242 27.9225 29.4695 27.82 29.1619 27.82C28.8544 27.8177 28.6002 27.9195 28.3994 28.1256C28.1986 28.3317 28.097 28.5908 28.0947 28.9028V30.9984H26.029C25.7215 30.9984 25.4667 31.1009 25.2647 31.3058C25.0628 31.5107 24.9618 31.7692 24.9618 32.0812C24.9595 32.3932 25.0599 32.6511 25.263 32.8548C25.4662 33.0586 25.7215 33.1616 26.029 33.1639H28.0947Z" fill="#FF7F1C"/>
</g>
<defs>
<clipPath id="clip0_3407_1283">
<rect width="70" height="70" fill="white" transform="translate(0.427734)"/>
</clipPath>
</defs>
</svg>
